<svg width="412" height="230" viewBox="0 0 412 230" fill="none" xmlns="http://www.w3.org/2000/svg">
<rect width="412" height="229" rx="19" fill="#017D4A"/>
<path d="M348 225.799C348 190.564 376.564 162 411.799 162V210.5C411.799 220.993 403.293 229.5 392.799 229.5H348V225.799Z" fill="#06AA53"/>
<path d="M60.7975 21.573C60.9094 47.7662 39.7663 69.1108 13.5732 69.2476C6.23917 69.2859 0.268356 63.3714 0.237047 56.0374L0.0596889 14.4912C0.0266818 6.75933 6.26785 0.458656 13.9997 0.418293L46.7064 0.247554C54.4382 0.207192 60.7329 6.44243 60.766 14.1743L60.7975 21.573Z" fill="#018757"/>
<path d="M364 104.08C319.817 104.08 284 68.2626 284 24.0798L284 1.52588e-05L392.615 1.00086e-05C403.108 9.50141e-06 411.615 8.5066 411.615 19L411.615 104.08L364 104.08Z" fill="#018757"/>
</svg>
